<svg xmlns="http://www.w3.org/2000/svg" width="1254" height="1254" viewBox="0 0 1254 1254" fill="none">
  <title>TypedFunctions logo flat vector</title>
  <path d="M 878 200 L 870 201 L 863 202 L 854 204 L 850 205 L 846 206 L 840 208 L 831 211 L 826 213 L 820 216 L 810 221 L 803 225 L 791 233 L 787 236 L 782 240 L 775 246 L 761 260 L 754 268 L 750 273 L 747 277 L 744 281 L 738 290 L 733 298 L 730 304 L 720 324 L 717 331 L 715 336 L 713 341 L 710 349 L 709 352 L 706 362 L 700 383 L 697 395 L 690 427 L 689 431 L 687 435 L 686 439 L 685 443 L 679 468 L 675 485 L 674 494 L 671 507 L 667 520 L 665 533 L 664 537 L 662 539 L 593 539 L 594 602 L 650 603 L 649 607 L 647 616 L 641 643 L 628 696 L 623 718 L 622 727 L 619 740 L 613 762 L 609 784 L 596 840 L 591 861 L 590 865 L 587 876 L 585 883 L 582 892 L 579 900 L 576 907 L 574 911 L 571 915 L 571 917 L 568 922 L 562 931 L 558 936 L 549 945 L 544 949 L 541 951 L 538 953 L 533 956 L 531 957 L 526 959 L 523 960 L 520 961 L 516 962 L 510 963 L 490 963 L 483 962 L 471 959 L 468 958 L 465 957 L 460 955 L 446 948 L 445 950 L 444 952 L 442 959 L 441 965 L 435 981 L 432 994 L 422 1023 L 422 1026 L 421 1027 L 421 1029 L 423 1030 L 430 1033 L 436 1035 L 448 1039 L 459 1042 L 464 1043 L 469 1044 L 475 1045 L 482 1046 L 495 1047 L 511 1047 L 525 1046 L 533 1045 L 538 1044 L 543 1043 L 547 1042 L 554 1040 L 557 1039 L 560 1038 L 568 1035 L 577 1031 L 581 1029 L 587 1026 L 595 1021 L 604 1015 L 609 1011 L 614 1007 L 636 985 L 640 980 L 643 976 L 646 972 L 650 966 L 656 957 L 660 950 L 664 942 L 671 928 L 674 921 L 676 916 L 678 911 L 681 903 L 683 897 L 686 888 L 689 877 L 690 873 L 691 869 L 692 860 L 695 851 L 696 842 L 701 825 L 705 803 L 714 764 L 722 734 L 724 721 L 726 717 L 729 704 L 731 691 L 735 678 L 739 656 L 743 643 L 751 608 L 751 604 L 753 602 L 882 603 L 882 644 L 883 647 L 885 649 L 888 650 L 892 650 L 895 649 L 906 638 L 925 617 L 946 596 L 963 578 L 964 576 L 965 574 L 965 569 L 964 566 L 958 559 L 945 545 L 931 531 L 918 517 L 908 505 L 894 491 L 892 490 L 888 490 L 886 491 L 884 492 L 883 493 L 882 495 L 881 539 L 766 538 L 766 536 L 767 531 L 772 509 L 781 471 L 785 454 L 787 450 L 790 433 L 793 425 L 793 421 L 795 417 L 797 404 L 805 374 L 809 362 L 812 354 L 814 349 L 818 340 L 819 338 L 820 336 L 825 327 L 831 318 L 834 314 L 848 300 L 852 297 L 855 295 L 858 293 L 866 289 L 871 287 L 878 285 L 882 284 L 889 283 L 905 283 L 913 284 L 918 285 L 923 286 L 932 289 L 937 291 L 949 297 L 951 299 L 956 301 L 957 299 L 957 297 L 963 284 L 972 257 L 976 249 L 980 235 L 985 224 L 985 221 L 981 220 L 968 213 L 963 211 L 957 209 L 948 206 L 941 204 L 936 203 L 931 202 L 925 201 L 917 200 L 898 199 Z" fill="#1E80FF"/>
  <path d="M 313 320 L 314 431 L 451 432 L 451 879 L 470 879 L 477 878 L 483 877 L 495 874 L 498 873 L 501 872 L 511 868 L 516 866 L 518 865 L 527 860 L 532 857 L 541 851 L 545 848 L 551 843 L 555 839 L 555 431 L 655 430 L 656 426 L 656 423 L 658 419 L 660 408 L 664 398 L 673 363 L 681 339 L 685 325 L 686 320 Z" fill="#1E80FF"/>
  <path d="M 981 390 L 979 391 L 977 392 L 973 396 L 972 398 L 971 400 L 971 403 L 970 404 L 970 406 L 971 411 L 972 413 L 973 415 L 983 425 L 987 430 L 989 433 L 991 436 L 994 441 L 997 446 L 1001 453 L 1004 459 L 1009 469 L 1013 478 L 1019 493 L 1022 502 L 1027 517 L 1030 528 L 1031 532 L 1033 541 L 1035 550 L 1036 555 L 1037 560 L 1038 566 L 1039 573 L 1040 582 L 1041 591 L 1042 604 L 1042 647 L 1041 662 L 1040 672 L 1039 680 L 1038 687 L 1037 693 L 1035 704 L 1033 713 L 1029 729 L 1027 736 L 1025 743 L 1023 749 L 1020 758 L 1014 773 L 1011 780 L 1006 791 L 1004 793 L 1004 795 L 1002 797 L 1002 799 L 1001 801 L 995 812 L 992 817 L 989 822 L 984 830 L 982 833 L 980 836 L 977 840 L 973 844 L 970 848 L 969 850 L 968 852 L 967 856 L 967 859 L 968 863 L 969 865 L 970 867 L 973 870 L 975 871 L 977 872 L 980 873 L 987 873 L 990 872 L 992 871 L 994 870 L 998 866 L 1005 857 L 1009 851 L 1015 842 L 1018 837 L 1021 832 L 1025 825 L 1038 799 L 1043 787 L 1045 782 L 1050 769 L 1056 751 L 1058 744 L 1060 737 L 1064 721 L 1067 707 L 1068 701 L 1070 689 L 1071 682 L 1072 674 L 1073 664 L 1074 650 L 1074 602 L 1073 588 L 1072 578 L 1070 563 L 1067 545 L 1066 540 L 1065 535 L 1062 522 L 1061 518 L 1058 507 L 1055 498 L 1049 480 L 1046 472 L 1043 465 L 1040 458 L 1028 434 L 1024 427 L 1021 422 L 1018 417 L 1012 408 L 1008 403 L 997 393 L 994 391 L 991 390 Z" fill="#1E80FF"/>
  <path d="M 267 390 L 261 393 L 252 402 L 248 407 L 243 414 L 238 422 L 235 427 L 230 436 L 226 444 L 219 458 L 215 467 L 209 482 L 206 490 L 203 499 L 200 509 L 198 516 L 194 532 L 190 552 L 189 558 L 188 565 L 187 572 L 186 581 L 185 593 L 184 613 L 184 641 L 185 660 L 186 671 L 187 680 L 188 688 L 189 694 L 190 700 L 194 720 L 198 736 L 200 743 L 202 750 L 209 771 L 217 791 L 221 800 L 225 809 L 226 811 L 228 813 L 228 815 L 229 817 L 235 828 L 241 838 L 244 843 L 247 846 L 250 852 L 252 855 L 255 859 L 259 864 L 265 870 L 267 871 L 269 872 L 272 873 L 279 873 L 282 872 L 284 871 L 289 866 L 290 864 L 291 861 L 291 854 L 290 851 L 289 849 L 287 846 L 280 838 L 271 825 L 268 820 L 264 813 L 259 804 L 250 786 L 246 777 L 243 770 L 238 757 L 238 754 L 235 748 L 233 742 L 227 721 L 225 712 L 224 707 L 223 702 L 221 691 L 220 685 L 218 670 L 217 660 L 216 647 L 216 608 L 217 594 L 218 584 L 219 576 L 223 552 L 224 547 L 225 542 L 228 530 L 231 519 L 233 512 L 234 509 L 239 495 L 242 487 L 246 480 L 248 473 L 252 465 L 259 451 L 263 444 L 266 439 L 272 430 L 275 426 L 284 417 L 286 414 L 287 411 L 287 401 L 286 399 L 285 397 L 280 392 L 278 391 L 275 390 Z" fill="#1E80FF"/>
  <path d="M 126 565 L 123 566 L 121 567 L 92 595 L 88 599 L 84 603 L 80 608 L 78 610 L 71 617 L 70 618 L 56 631 L 54 634 L 53 637 L 53 646 L 54 649 L 55 651 L 120 716 L 122 717 L 124 718 L 128 719 L 134 719 L 137 718 L 139 717 L 144 712 L 146 709 L 147 704 L 147 702 L 146 701 L 146 698 L 145 695 L 143 692 L 109 658 L 94 641 L 144 591 L 145 589 L 146 587 L 147 582 L 146 576 L 145 574 L 144 572 L 140 568 L 138 567 L 136 566 L 133 565 Z" fill="#1E80FF"/>
  <path d="M 1127 564 L 1123 565 L 1121 566 L 1119 567 L 1115 571 L 1114 573 L 1113 575 L 1112 581 L 1113 586 L 1114 589 L 1116 592 L 1118 594 L 1119 594 L 1120 595 L 1145 620 L 1146 621 L 1154 630 L 1160 636 L 1161 636 L 1166 641 L 1137 670 L 1115 693 L 1114 695 L 1113 697 L 1112 702 L 1112 704 L 1113 705 L 1113 708 L 1114 710 L 1115 712 L 1120 717 L 1122 718 L 1126 719 L 1131 719 L 1135 718 L 1137 717 L 1140 715 L 1176 678 L 1181 674 L 1183 672 L 1184 671 L 1201 654 L 1202 653 L 1202 652 L 1204 650 L 1205 648 L 1206 644 L 1206 639 L 1205 635 L 1204 633 L 1195 623 L 1193 621 L 1187 615 L 1185 613 L 1181 609 L 1177 605 L 1173 601 L 1171 599 L 1166 595 L 1140 568 L 1137 566 L 1135 565 L 1131 564 Z" fill="#1E80FF"/>
</svg>